# File created by Blade
# Date/Time:  Fri Jan 16 17:25:32 2015
#---------------------------------------------------------
:version 1.10
:name HOM
:units
  mass 1.0
  length 1.000000
  angle deg
:documentation
     Acclaim Skeleton File
:root
   axis xyz
   order TX TY TZ RX RY RZ
   position 0.000000 0.000000 0.000000
   orientation 0 0 0
:bonedata
   begin
      id 1
      name Spine_dum
      direction 0.000000 1.000000 0.000000
      length 7.170412
      axis 0.0 0.0 0.0 xyz
   end
   begin
      id 2
      name LeftUpLeg_dum
      direction 1.000000 0.000000 0.000000
      length 4.318350
      axis 0.0 0.0 0.0 xyz
   end
   begin
      id 3
      name RightUpLeg_dum
      direction -1.000000 0.000000 0.000000
      length 4.318350
      axis 0.0 0.0 0.0 xyz
   end
   begin
      id 4
      name Spine
      direction 0.000000 1.000000 0.000000
      length 0.000000
      axis 0.0 0.0 0.0 xyz
      dof rx ry rz
   end
   begin
      id 5
      name Spine_dum1
      direction 0.000000 1.000000 0.000000
      length 14.276153
      axis 0.0 0.0 0.0 xyz
   end
   begin
      id 6
      name Spine_dum2
      direction 0.000000 1.000000 0.000000
      length 10.718243
      axis 0.0 0.0 0.0 xyz
   end
   begin
      id 7
      name Spine_dum3
      direction 0.000000 1.000000 0.000000
      length 10.718243
      axis 0.0 0.0 0.0 xyz
   end
   begin
      id 8
      name Head
      direction 0.000000 1.000000 0.000000
      length 4.527550
      axis 0.0 0.0 0.0 xyz
      dof rx ry rz
   end
   begin
      id 9
      name LeftShoulder
      direction 1.000000 0.000000 0.000000
      length 7.058872
      axis 0.0 0.0 -90.0 xyz
      dof rx ry rz
   end
   begin
      id 10
      name LeftArm
      direction 1.000000 0.000000 0.000000
      length 10.955525
      axis 0.0 0.0 -90.0 xyz
      dof rx ry rz
   end
   begin
      id 11
      name LeftForeArm
      direction 1.000000 0.000000 0.000000
      length 8.193716
      axis 0.0 0.0 -90.0 xyz
      dof ry rz rx
   end
   begin
      id 12
      name LeftHand
      direction 0.000000 0.000000 0.000000
      length 0.000000
      axis 0.0 0.0 -90.0 xyz
      dof rx ry rz
   end
   begin
      id 13
      name LeftHand_dum1
      direction 0.000000 0.000000 0.000000
      length 0.000000
      axis 0.0 0.0 -90.0 xyz
   end
   begin
      id 14
      name LeftHand_dum2
      direction 1.000000 0.000000 0.000000
      length 3.937000
      axis 0.0 0.0 -90.0 xyz
   end
   begin
      id 15
      name LeftHandThumb1
      direction 0.000000 0.000000 1.000000
      length 3.937000
      axis 0.0 0.0 -90.0 xyz
      dof rx rz ry
   end
   begin
      id 16
      name RightShoulder
      direction -1.000000 0.000000 0.000000
      length 7.058872
      axis 0.0 0.0 90.0 xyz
      dof rx ry rz
   end
   begin
      id 17
      name RightArm
      direction -1.000000 0.000000 0.000000
      length 10.955525
      axis 0.0 0.0 90.0 xyz
      dof rx ry rz
   end
   begin
      id 18
      name RightForeArm
      direction -1.000000 0.000000 0.000000
      length 8.193716
      axis 0.0 0.0 90.0 xyz
      dof ry rz rx
   end
   begin
      id 19
      name RightHand
      direction 0.000000 0.000000 0.000000
      length 0.000000
      axis 0.0 0.0 90.0 xyz
      dof rx ry rz
   end
   begin
      id 20
      name RightHand_dum1
      direction 0.000000 0.000000 0.000000
      length 0.000000
      axis 0.0 0.0 90.0 xyz
   end
   begin
      id 21
      name RightHand_dum2
      direction -1.000000 0.000000 0.000000
      length 3.937000
      axis 0.0 0.0 90.0 xyz
   end
   begin
      id 22
      name RightHandThumb1
      direction 0.000000 0.000000 1.000000
      length 3.937000
      axis 0.0 0.0 90.0 xyz
      dof rx rz ry
   end
   begin
      id 23
      name LeftUpLeg
      direction 0.000000 -1.000000 0.000000
      length 17.323638
      axis 0.0 0.0 0.0 xyz
      dof rx ry rz
   end
   begin
      id 24
      name LeftLeg
      direction 0.000000 -1.000000 0.000000
      length 16.270368
      axis 0.0 0.0 0.0 xyz
      dof rx ry rz
   end
   begin
      id 25
      name LeftFoot
      direction 0.000000 -0.258819 0.965926
      length 4.922846
      axis 15.0 0.0 0.0 xyz
      dof rx ry rz
   end
   begin
      id 26
      name LeftToeBase
      direction 0.000000 0.000000 1.000000
      length 2.952750
      axis 0.0 0.0 0.0 xyz
      dof rx ry rz
   end
   begin
      id 27
      name RightUpLeg
      direction 0.000000 -1.000000 0.000000
      length 17.323638
      axis 0.0 0.0 0.0 xyz
      dof rx ry rz
   end
   begin
      id 28
      name RightLeg
      direction 0.000000 -1.000000 0.000000
      length 16.270368
      axis 0.0 0.0 0.0 xyz
      dof rx ry rz
   end
   begin
      id 29
      name RightFoot
      direction 0.000000 -0.258819 0.965926
      length 4.922846
      axis 15.0 0.0 0.0 xyz
      dof rx ry rz
   end
   begin
      id 30
      name RightToeBase
      direction 0.000000 0.000000 1.000000
      length 2.952750
      axis 0.0 0.0 0.0 xyz
      dof rx ry rz
   end
:hierarchy
   begin
      root Spine_dum LeftUpLeg_dum RightUpLeg_dum
      Spine_dum Spine
      LeftUpLeg_dum LeftUpLeg
      RightUpLeg_dum RightUpLeg
      Spine Spine_dum1 Spine_dum2 Spine_dum3
      Spine_dum1 Head
      Spine_dum2 LeftShoulder
      Spine_dum3 RightShoulder
      LeftShoulder LeftArm
      LeftArm LeftForeArm
      LeftForeArm LeftHand
      LeftHand LeftHand_dum1 LeftHand_dum2
      LeftHand_dum1 LeftHandThumb1
      RightShoulder RightArm
      RightArm RightForeArm
      RightForeArm RightHand
      RightHand RightHand_dum1 RightHand_dum2
      RightHand_dum1 RightHandThumb1
      LeftUpLeg LeftLeg
      LeftLeg LeftFoot
      LeftFoot LeftToeBase
      RightUpLeg RightLeg
      RightLeg RightFoot
      RightFoot RightToeBase
   end

# File created by Blade
# Date/Time:  Fri Jan 16 17:25:22 2015
# Frame Rate: 120.000 fps
#------------------------------------------------------
:FULLY-SPECIFIED
:DEGREES
716
root -5.732982 35.258565 -10.856028 -3.352829 -10.976915 -6.210816
Spine 4.859715 1.541791 9.300390
Head 4.570384 8.567863 -5.246837
LeftShoulder -18.579438 15.842064 -16.097029
LeftArm 27.921173 20.554853 -65.304143
LeftForeArm 11.928602 -0.000000 15.938481
LeftHand 0.645117 -0.000000 -6.388974
LeftHandThumb1 -26.253704 0.000000 33.147579
RightShoulder -2.053866 -4.696992 2.549124
RightArm 10.089541 -35.444014 65.372583
RightForeArm -22.635206 -0.000000 23.436726
RightHand 0.361409 -0.000000 6.560306
RightHandThumb1 -24.326973 -0.000000 -32.862282
LeftUpLeg 13.349450 17.775055 8.588070
LeftLeg -8.878346 -0.000000 0.000000
LeftFoot -14.937509 30.001271 -7.711003
LeftToeBase 23.024473 -0.000000 -0.000000
RightUpLeg 8.153136 -3.721604 2.961192
RightLeg -4.201482 -0.000000 0.000000
RightFoot -2.860910 -21.776829 5.130147
RightToeBase 13.710678 -0.000000 -0.000000
717
root -5.732466 35.258444 -10.855629 -3.361314 -10.986951 -6.207131
Spine 4.836099 1.534928 9.300856
Head 4.593788 8.581950 -5.264426
LeftShoulder -18.593200 15.856419 -16.123823
LeftArm 27.940260 20.546399 -65.283842
LeftForeArm 11.868060 -0.000000 15.969833
LeftHand 0.701476 0.000000 -6.461243
LeftHandThumb1 -26.253704 0.000000 33.147579
RightShoulder -2.049570 -4.694134 2.544417
RightArm 10.316818 -35.653807 65.293582
RightForeArm -22.634335 -0.000000 23.490159
RightHand 0.268391 -0.000000 6.388349
RightHandThumb1 -24.326973 -0.000000 -32.862282
LeftUpLeg 13.359561 17.790919 8.588519
LeftLeg -8.875863 -0.000000 0.000000
LeftFoot -14.942390 30.000849 -7.721603
LeftToeBase 23.003803 -0.000000 -0.000000
RightUpLeg 8.165260 -3.702921 2.952975
RightLeg -4.203240 -0.000000 0.000000
RightFoot -2.871912 -21.760662 5.166475
RightToeBase 13.680390 -0.000000 -0.000000
718
root -5.731992 35.258006 -10.853701 -3.378500 -11.003747 -6.205128
Spine 4.821202 1.542163 9.316592
Head 4.622586 8.570926 -5.308722
LeftShoulder -18.583577 15.877126 -16.154123
LeftArm 27.945998 20.532260 -65.260831
LeftForeArm 11.834542 -0.000000 16.012330
LeftHand 0.703631 -0.000000 -6.475268
LeftHandThumb1 -26.253704 0.000000 33.147579
RightShoulder -2.027884 -4.674665 2.534836
RightArm 10.538960 -35.967240 65.145867
RightForeArm -22.713010 0.000000 23.593231
RightHand 0.236000 0.000000 6.489768
RightHandThumb1 -24.326973 -0.000000 -32.862282
LeftUpLeg 13.379358 17.768550 8.589601
LeftLeg -8.859285 -0.000000 0.000000
LeftFoot -14.963073 30.020831 -7.740214
LeftToeBase 22.990917 -0.000000 -0.000000
RightUpLeg 8.191061 -3.657353 2.956541
RightLeg -4.223023 -0.000000 0.000000
RightFoot -2.862816 -21.807726 5.143136
RightToeBase 13.736352 -0.000000 -0.000000
719
root -5.732573 35.257246 -10.856188 -3.387388 -11.032268 -6.188924
Spine 4.814531 1.566830 9.295150
Head 4.625762 8.563066 -5.320093
LeftShoulder -18.590296 15.867225 -16.164270
LeftArm 27.962376 20.535591 -65.229617
LeftForeArm 11.846512 -0.000000 16.028205
LeftHand 0.669647 -0.000000 -6.322088
LeftHandThumb1 -26.253704 0.000000 33.147579
RightShoulder -2.006344 -4.633541 2.554853
RightArm 10.724376 -36.128458 65.078435
RightForeArm -22.902083 -0.000000 23.677074
RightHand 0.177723 -0.000000 6.593957
RightHandThumb1 -24.326973 -0.000000 -32.862282
LeftUpLeg 13.392807 17.819640 8.584857
LeftLeg -8.867028 -0.000000 0.000000
LeftFoot -14.950015 30.003880 -7.738492
LeftToeBase 22.994912 -0.000000 -0.000000
RightUpLeg 8.181995 -3.605190 2.947747
RightLeg -4.201828 -0.000000 0.000000
RightFoot -2.892153 -21.825567 5.127188
RightToeBase 13.773447 -0.000000 -0.000000
720
root -5.732378 35.257238 -10.855409 -3.395044 -11.045517 -6.192323
Spine 4.792937 1.561198 9.312213
Head 4.652534 8.557925 -5.352420
LeftShoulder -18.593901 15.889256 -16.196738
LeftArm 27.978046 20.528458 -65.210435
LeftForeArm 11.809877 0.000000 16.048558
LeftHand 0.704424 -0.000000 -6.430995
LeftHandThumb1 -26.253704 0.000000 33.147579
RightShoulder -1.973399 -4.578529 2.549999
RightArm 10.878017 -36.290787 65.054169
RightForeArm -23.046242 -0.000000 23.707648
RightHand 0.140197 0.000000 6.582970
RightHandThumb1 -24.326973 -0.000000 -32.862282
LeftUpLeg 13.403357 17.832175 8.592381
LeftLeg -8.859889 -0.000000 0.000000
LeftFoot -14.955212 30.003371 -7.738535
LeftToeBase 22.992830 -0.000000 -0.000000
RightUpLeg 8.188488 -3.589486 2.951467
RightLeg -4.199782 -0.000000 0.000000
RightFoot -2.886435 -21.837984 5.137925
RightToeBase 13.728265 -0.000000 -0.000000
721
root -5.733474 35.257363 -10.855834 -3.390660 -11.010797 -6.187707
Spine 4.745925 1.515393 9.305110
Head 4.690868 8.548631 -5.374257
LeftShoulder -18.599946 15.890255 -16.212872
LeftArm 27.985137 20.565515 -65.178949
LeftForeArm 11.576205 -0.000000 16.035730
LeftHand 0.693799 -0.000000 -6.873767
LeftHandThumb1 -26.253704 0.000000 33.147579
RightShoulder -1.953744 -4.544564 2.550520
RightArm 11.090412 -36.517271 64.983577
RightForeArm -23.226868 0.000000 23.724849
RightHand 0.154225 -0.000000 6.678103
RightHandThumb1 -24.326973 -0.000000 -32.862282
LeftUpLeg 13.382347 17.847435 8.591420
LeftLeg -8.848129 -0.000000 0.000000
LeftFoot -14.949757 29.954561 -7.711577
LeftToeBase 23.028863 -0.000000 -0.000000
RightUpLeg 8.184935 -3.621636 2.942707
RightLeg -4.192185 -0.000000 0.000000
RightFoot -2.898989 -21.815018 5.140771
RightToeBase 13.711850 -0.000000 -0.000000
722
root -5.732462 35.257222 -10.856393 -3.390338 -10.999026 -6.188065
Spine 4.714988 1.482157 9.318722
Head 4.709695 8.585094 -5.409347
LeftShoulder -18.628876 15.882973 -16.247081
LeftArm 28.000151 20.573501 -65.156767
LeftForeArm 11.705289 -0.000000 16.031475
LeftHand 0.690735 -0.000000 -6.543923
LeftHandThumb1 -26.253704 0.000000 33.147579
RightShoulder -1.910670 -4.501863 2.552170
RightArm 11.253629 -36.655312 64.953882
RightForeArm -23.472265 -0.000000 23.750470
RightHand 0.162906 -0.000000 6.615724
RightHandThumb1 -24.326973 -0.000000 -32.862282
LeftUpLeg 13.381733 17.875220 8.595272
LeftLeg -8.858100 -0.000000 0.000000
LeftFoot -14.945515 29.931905 -7.660122
LeftToeBase 23.118850 -0.000000 -0.000000
RightUpLeg 8.182362 -3.630009 2.940412
RightLeg -4.187390 -0.000000 0.000000
RightFoot -2.905974 -21.817740 5.150802
RightToeBase 13.724424 -0.000000 -0.000000
723
root -5.731682 35.256371 -10.854001 -3.399753 -10.968552 -6.188139
Spine 4.680362 1.449485 9.330254
Head 4.736903 8.576464 -5.444755
LeftShoulder -18.637071 15.873579 -16.260433
LeftArm 27.990883 20.591100 -65.150376
LeftForeArm 11.782452 -0.000000 16.019359
LeftHand 0.669384 -0.000000 -6.437017
LeftHandThumb1 -26.253704 0.000000 33.147579
RightShoulder -1.890348 -4.476590 2.553539
RightArm 11.429338 -36.829593 64.909495
RightForeArm -23.731416 0.000000 23.785063
RightHand 0.125898 -0.000000 6.689915
RightHandThumb1 -24.326973 -0.000000 -32.862282
LeftUpLeg 13.388280 17.860945 8.594367
LeftLeg -8.857705 -0.000000 0.000000
LeftFoot -14.946095 29.909391 -7.688219
LeftToeBase 23.040954 -0.000000 -0.000000
RightUpLeg 8.204082 -3.664083 2.934144
RightLeg -4.199278 -0.000000 0.000000
RightFoot -2.908186 -21.805107 5.134349
RightToeBase 13.709488 -0.000000 -0.000000
724
root -5.731029 35.256088 -10.853080 -3.403213 -10.944796 -6.184747
Spine 4.645893 1.424761 9.333181
Head 4.756151 8.602204 -5.464022
LeftShoulder -18.644693 15.867508 -16.282229
LeftArm 27.988303 20.604859 -65.131376
LeftForeArm 11.795994 0.000000 16.003335
LeftHand 0.642235 -0.000000 -6.460497
LeftHandThumb1 -26.253704 0.000000 33.147579
RightShoulder -1.869597 -4.447650 2.563519
RightArm 11.629251 -37.023063 64.852432
RightForeArm -23.935308 -0.000000 23.792486
RightHand 0.139315 -0.000000 6.629586
RightHandThumb1 -24.326973 -0.000000 -32.862282
LeftUpLeg 13.386617 17.851802 8.590778
LeftLeg -8.858683 -0.000000 0.000000
LeftFoot -14.936830 29.899516 -7.684943
LeftToeBase 23.028371 -0.000000 -0.000000
RightUpLeg 8.209656 -3.664821 2.934305
RightLeg -4.203638 -0.000000 0.000000
RightFoot -2.910086 -21.847375 5.137460
RightToeBase 13.711897 -0.000000 -0.000000
725
root -5.730481 35.255964 -10.850523 -3.418316 -10.926884 -6.181259
Spine 4.624132 1.413997 9.342189
Head 4.773665 8.619824 -5.493607
LeftShoulder -18.639687 15.873479 -16.305293
LeftArm 27.983774 20.574686 -65.142659
LeftForeArm 11.870488 -0.000000 15.965725
LeftHand 0.590436 -0.000000 -6.464923
LeftHandThumb1 -26.253704 0.000000 33.147579
RightShoulder -1.856933 -4.412168 2.567642
RightArm 11.829453 -37.234138 64.788819
RightForeArm -24.156815 -0.000000 23.791924
RightHand 0.159323 -0.000000 6.859167
RightHandThumb1 -24.326973 -0.000000 -32.862282
LeftUpLeg 13.394625 17.796871 8.583266
LeftLeg -8.845847 -0.000000 0.000000
LeftFoot -14.959939 29.924105 -7.703863
LeftToeBase 23.029308 -0.000000 -0.000000
RightUpLeg 8.233591 -3.673878 2.927906
RightLeg -4.212520 -0.000000 0.000000
RightFoot -2.907735 -21.852380 5.142176
RightToeBase 13.745136 -0.000000 -0.000000
726
root -5.731395 35.255712 -10.849678 -3.419739 -10.889492 -6.187965
Spine 4.585992 1.385527 9.352463
Head 4.793505 8.622341 -5.512350
LeftShoulder -18.629240 15.881447 -16.313671
LeftArm 27.982865 20.577838 -65.125692
LeftForeArm 11.950911 -0.000000 15.941369
LeftHand 0.570176 -0.000000 -6.251608
LeftHandThumb1 -26.253704 0.000000 33.147579
RightShoulder -1.834324 -4.353463 2.586061
RightArm 11.981243 -37.392853 64.776383
RightForeArm -24.466899 0.000000 23.778843
RightHand 0.130795 -0.000000 6.939546
RightHandThumb1 -24.326973 -0.000000 -32.862282
LeftUpLeg 13.394783 17.790019 8.591651
LeftLeg -8.859394 -0.000000 0.000000
LeftFoot -14.941234 29.912424 -7.663719
LeftToeBase 23.033847 -0.000000 -0.000000
RightUpLeg 8.238440 -3.716640 2.933822
RightLeg -4.209411 -0.000000 0.000000
RightFoot -2.912458 -21.856610 5.138274
RightToeBase 13.722982 -0.000000 -0.000000
727
root -5.731122 35.255197 -10.848885 -3.419510 -10.857923 -6.186636
Spine 4.547045 1.351612 9.358355
Head 4.800501 8.629059 -5.538576
LeftShoulder -18.632681 15.869535 -16.320783
LeftArm 27.955195 20.566796 -65.148905
LeftForeArm 12.006363 -0.000000 15.908736
LeftHand 0.534093 -0.000000 -6.195489
LeftHandThumb1 -26.253704 0.000000 33.147579
RightShoulder -1.804745 -4.339321 2.576682
RightArm 12.197149 -37.615739 64.723605
RightForeArm -24.742205 -0.000000 23.759060
RightHand 0.156880 -0.000000 6.957054
RightHandThumb1 -24.326973 -0.000000 -32.862282
LeftUpLeg 13.386058 17.807094 8.592651
LeftLeg -8.856469 -0.000000 0.000000
LeftFoot -14.924134 29.873502 -7.639683
LeftToeBase 23.017440 -0.000000 -0.000000
RightUpLeg 8.241428 -3.753425 2.930308
RightLeg -4.211245 -0.000000 0.000000
RightFoot -2.911501 -21.862153 5.107315
RightToeBase 13.733410 -0.000000 -0.000000
